<svg xmlns="http://www.w3.org/2000/svg"
    xmlns:xlink="http://www.w3.org/1999/xlink" preserveAspectRatio="xMidYMid meet" version="1.0" viewBox="-15.2 12.5 1618.6 1600.4" zoomAndPan="magnify" style="fill: rgb(223, 202, 179);" role="img" aria-label="Floral Design Illustration">
    <g id="__id9_sus47x0fd">
        <path d="M821.076,60.835c6.716-18.388,16.62-45.289-4.327-45.939c-3.953,0.666-7.136,3.308-10.465,5.305 c-3.787-2.954-7.303-7.511-12.587-7.24c-9.424-0.426-29.765,9.82-3.558,49.351C797.824,74.194,815.352,77.39,821.076,60.835z" style="fill: inherit;"></path>
        <path d="M802.122,118.55c3.516-0.229,3.807-4.348,5.534-6.679c3.745-8.093,14.897-8.905,18.683-16.998 c0.291-3.308,0.083-6.637,0.021-9.945c-7.24-0.832-14.855-0.728-20.514,4.515c-16.283-5.468-15.604-4.812-28.608,3.558 C799.951,107.076,790.696,104.86,802.122,118.55z" style="fill: inherit;"></path>
        <path d="M790.97,171.625c14.214,19.204-1.942,56.71,10.777,55.135c4.993-16.374,0.77-34.475,7.906-50.37 c10.012-18.079,40.855-7.839,41.986-63.603c-4.993,0.166-10.111-0.125-14.959,1.29c-4.681,2.871-7.552,7.698-10.964,11.838 c-5.565,7.894-9.403,1.841-21.076,20.202c-9.383-16.977-27.921-31.312-48.165-28.774c1.956,11.36,2.372,23.302,7.324,33.871 C769.957,161.492,784.5,161.555,790.97,171.625z" style="fill: inherit;"></path>
        <path d="M766.711,265.874c9.25-23.162,8.04-19.7,25.383-27.526c-3.1-10.861-10.507-19.661-15.001-29.898 c-8.598-20.094-37.236-39.368-48.373-45.19c-13.824-7.953-36.723,14.479-36.639,30.605 C688.893,233.272,733.87,251.133,766.711,265.874z" style="fill: inherit;"></path>
        <path d="M812.795,233.604c-0.895,6.616,5.992,10.299,9.654,14.751c4.806,4.265,10.361,12.338,17.706,8.405 c20.112-10.613,68.309-46.535,64.039-75.15c-5.451-16.915-27.651-22.199-42.651-15.563 C830.822,181.694,814.635,221.211,812.795,233.604z" style="fill: inherit;"></path>
        <path d="M866.682,260.797c-2.809,1.56,0.229,4.64,1.872,5.826c30.53,25.203,65.464,17.951,57.527-7.469 c-2.039-10.444-12.608-18.496-23.261-16.665C889.152,244.59,878.416,254.223,866.682,260.797z" style="fill: inherit;"></path>
        <path d="M700.217,302.679c10.775-1.173,12.477-6.568,55.426-25.612C657.648,223.659,661.013,303.165,700.217,302.679z" style="fill: inherit;"></path>
        <path d="M893.958,362.661c18.798-18.938,23.678-43.861-24.821-77.667c-9.945-7.053-21.783-10.486-32.311-16.478 c-3.287,13.69-11.235,26.631-24.426,32.665C816.976,334.016,865.995,391.382,893.958,362.661z" style="fill: inherit;"></path>
        <path d="M765.546,290.674c-8.946-1.873-16.416,5.118-23.344,9.675c-8.405,6.2-20.244,8.322-25.424,18.267 c-8.53,14.356-19.703,29.939-16.332,47.561c1.893,13.503,18.933,20.327,30.334,13.815c29.197-16.363,50.559-50.462,56.695-73.714 C778.986,302.866,772.287,296.624,765.546,290.674z" style="fill: inherit;"></path>
        <path d="M791.282,414.238c2.954,27.692,0.395,55.738,4.598,83.347c9.874,101.381-3.075,65.966,8.655,92.231 c21.301-27.962,6.275-46.826,10.507-75.17c4.494-37.367-3.641-74.921,0.062-112.308c10.944-2.559,24.343-9.633,22.678-22.886 c-7.448-4.452-16.395-5.139-24.155-8.905c-0.208-13.149-2.934-26.09-6.054-38.823c-1.103-5.638-5.659-9.425-9.799-12.941 c-10.83,27.829-0.833,41.677-8.281,53.366c-7.011,3.474-16.52,3.142-21.471,10.195 C763.331,399.523,791.796,398.933,791.282,414.238z" style="fill: inherit;"></path>
        <path d="M1261.279,393.516c-1.021-13.783,0.36-10.727-11.214-20.806c5.534-7.469,6.325-16.832,7.511-25.736 c-10.153-1.852-20.223,0.146-29.253,4.993c-5.077-5.909-12.504-7.261-19.89-5.638c3.412,14.46-2.705,32.29,9.155,43.796 C1229.377,404.082,1236.985,386.377,1261.279,393.516z" style="fill: inherit;"></path>
        <path d="M394.791,396.304c6.595-6.845,1.852-16.291,0.104-24.051c-1.997-5.909,0.229-11.901,1.269-17.726 c-3.537,0.374-7.136,0.395-10.59,1.269c-4.119,2.31-6.741,6.387-9.716,9.903c-7.864-5.014-17.123-6.408-26.215-7.219 c-1.228,9.966,0.146,20.015,5.264,28.774c-2.06,2.892-4.369,5.659-5.93,8.884c-0.374,3.745,0.25,7.49,0.562,11.214 C364.498,403.96,383.889,409.994,394.791,396.304z" style="fill: inherit;"></path>
        <path d="M460.454,458.221c5.597,5.097,11.235,10.174,17.165,14.918c1.165-6.242,2.663-12.65,1.56-19.037 c-0.874-6.096-4.681-12.296-1.207-18.267c5.222-12.317-3.641-23.843-8.988-34.288c1.311-3.287,5.118-3.079,8.073-3.412 c4.744,2.018,8.073,8.634,13.94,6.595c10.37-1.92,13.13-27.942-6.179-37.034c-6.72-0.666-12.941,3.391-19.557,4.327 c-10.757,2.268-13.94,14.46-15.708,23.781c-17.623-5.983-11.25-4.691-44.191,6.699c5.971,5.243,11.485,11.693,19.079,14.626 C453.09,420.463,463.552,435.789,460.454,458.221z" style="fill: inherit;"></path>
        <path d="M1118.345,394.431c5.326-0.687,10.465-2.351,15.771-3.183c-6.566,24.885-6.756,19.408-1.123,39.406 c-6.72,9.966-14.867,19.888-2.83,35.286c6.346-5.493,13.066-11.235,16.395-19.162c2.368-8.248-1.756-21.047,14.106-31.645 c9.425-5.035,21.014-2.143,30.522-6.97c4.161-4.744,6.887-10.569,10.881-15.459c-3.599-0.125-7.219,0.083-10.756-0.541 c-6.762-2.809-11.526-9.404-18.808-10.944c-6.013,0.562-11.485,3.412-17.165,5.243c-16.769-30.802-41.299-17.897-44.961-4.952 C1108.296,386.983,1112.145,394.41,1118.345,394.431z" style="fill: inherit;"></path>
        <path d="M986.189,415.465c2.538-5.368,0.271-10.715-2.726-15.271c8.148-20.486-2.649-27.02-8.301-26.798 c-6.824,2.226-12.712,6.47-18.891,9.987c-0.77-1.54-2.33-4.598-3.121-6.138c-5.992-4.452-11.173,3.787-12.525,8.926 c-1.977,11.505,4.307,22.387,8.842,32.561C959.932,426.409,977.346,425.702,986.189,415.465z" style="fill: inherit;"></path>
        <path d="M1101.16,449.462c7.819-14.069,4.412-42.187-5.035-54.968c-1.727,5.222-2.476,10.777-4.66,15.854 c-3.204,3.391-8.093,4.265-11.838,6.887c-2.954,2.892-2.829,7.927-6.408,10.319c-4.952,3.911-12.005,6.408-13.836,13.087 c-8.947,24.675-3.475,51.182-5.326,76.731C1086.62,481.472,1097.493,466.131,1101.16,449.462z" style="fill: inherit;"></path>
        <path d="M622.778,437.332c-1.165,4.598-5.222,11.339,0.271,14.585c10.528,4.411,23.427-1.29,28.358-11.339 c9.033-17.342,18.573-40.871-0.999-40.155c-7.365,0-11.318,8.697-18.891,7.969c-8.405-0.52-16.915,5.576-17.331,14.356 C612.708,429.28,618.763,433.358,622.778,437.332z" style="fill: inherit;"></path>
        <path d="M837.741,475.177c60.693-50.758,77.856-7.058,65.35,7.032c-16.559,20.467-63.192,10.288-57.735,50.807 c37.492-24.164,30.163,3.191,63.02-19.848c2.141,13.884-1.36,9.779,13.482,22.199c0.603-7.615-1.477-16.395,3.266-23.032 c10.71-9.141,31.924-6.674,34.62-47.124c-5.222-4.598-11.714-8.114-15.105-14.439c-6.083-11.115-7.331-43.886-50.953-45.939 C855.658,401.68,835.776,442.414,837.741,475.177z" style="fill: inherit;"></path>
        <path d="M981.632,443.636c-3.204,6.408-3.953,14.377-0.853,20.951c3.37,3.724,8.093,5.805,11.693,9.258 c6.567,40.363-12.943,23.828-20.951,41.029c0.548,17.54,36.119,26.962,17.83,45.044c-9.321,8.78-5.909,22.928-5.576,34.288 c16.853-11.651,26.257-30.584,35.078-48.435c7.074-16.624,1.207-34.828,0.083-51.972c5.731-34.938,25.891-48.713,15.542-90.733 c-3.329,4.91-6.304,10.424-11.235,13.898c-5.721,2.143-12.005-1.248-17.685,0.728c-4.806,3.807-7.552,9.446-11.089,14.335 C991.265,437.041,984.212,438.102,981.632,443.636z" style="fill: inherit;"></path>
        <path d="M1157.959,457.139c-5.222,5.784-10.444,11.568-15.25,17.685c8.967,2.247,18.496,2.996,27.297-0.499 c6.491-2.975,12.379,3.454,19.058,2.413c9.841-0.957,18.101-6.991,26.756-11.235c0.687,2.996,1.54,5.971,2.018,9.03 c-2.455,4.619-9.737,8.281-6.325,14.314c8.312,16.97,42.045,1.488,36.264-12.733c-4.415-12.239-1.682-26.501-27.796-29.544 c6.492-19.552,4.859-8.402-5.722-43.213c-7.76,5.701-15.999,13.107-16.249,23.489 C1197.103,441.496,1186.047,460.766,1157.959,457.139z" style="fill: inherit;"></path>
        <path d="M645.228,461.695c-0.691,22.855-3.63,22.723,16.728,33.372c-13.182,30.858,25.487,34.863,36.867,53.491 c2.892-4.889,7.261-8.51,12.379-10.923c7.386-3.537,11.069-11.256,16.936-16.54c16.187-3.329,28.712,9.966,41.257,17.872 c-3.412-11.089-6.679-22.845-14.231-31.895c-11.526-10.278-29.773-2.518-41.382-12.691c-18.6-21.714,13.709-49.421,36.41-36.285 c12.733,5.409,15.126,21.076,26.465,28.046c0.548-51.116-63.112-112.916-104.257-57.923c-6.408,8.301-8.031,19.141-13.877,27.713 C654.652,458.928,649.742,460.031,645.228,461.695z" style="fill: inherit;"></path>
        <path d="M552.58,530.062c-3.537-25.404,3.537-51.993-5.846-76.585c-2.185-7.157-10.111-9.446-15.146-14.106 c-2.039-2.996-2.622-6.907-5.139-9.55c-3.87-2.413-8.738-3.391-11.776-6.97c-2.101-4.91-3.142-10.216-4.973-15.23 c-8.218,9.175-7.24,22.324-9.03,33.726C495.706,468.575,537.053,513.565,552.58,530.062z" style="fill: inherit;"></path>
        <path d="M579.191,478.881c4.057,38.263-6.293,72.239,18.871,95.83c9.633,9.3,14.772,22.99,27.026,29.502 c-0.312-10.902-6.471-22.324-0.832-32.79c3.287-8.551,12.671-11.152,19.682-15.708c6.699-4.598,6.741-14.626,2.434-20.889 c-2.642-5.701-9.903-4.348-14.938-5.638c0.208-2.684,0.52-5.368,0.936-8.031c5.472-4.078,16.603-4.327,16.02-13.274 c0.978-9.425-9.321-11.693-15.958-14.647c-0.271-4.806,1.54-10.944-3.37-14.002c-5.638-5.514-13.503-1.935-20.244-1.831 c-12.087-9.974,7.406-21.007,3.079-35.494c-1.644-8.738-8.718-14.772-16.353-18.475c-11.265-5.133-4.77-12.622-26.673-16.416 c2.018,7.22,5.826,14.085,5.909,21.742C575.654,445.55,581.542,461.966,579.191,478.881z" style="fill: inherit;"></path>
        <path d="M394.063,503.827c7.032-5.68,0.083-14.793-0.042-22.012c18.421,3.901,18.899,8.415,39.468,0.583 c13.626,10.809,20.57,12.943,35.432,3.474c-3.953-4.494-7.823-9.154-12.65-12.754c-9.258-7.969-23.718-1.997-32.519-11.11 c-11.506-9.03-7.344-25.216-12.691-37.2c-4.806-4.203-10.652-6.97-15.708-10.84c-0.312,4.598,1.103,9.82-1.81,13.856 c-10.168,17.346-12.212,6.817-4.348,32.706C350.076,482.072,381.391,514.554,394.063,503.827z" style="fill: inherit;"></path>
        <path d="M1127.895,487.016c-2.252-17.073-33.769,20.433-40.904,27.068c-13.94,13.399-27.359,27.339-39.676,42.235 c2.06,1.706,4.099,3.495,6.575,4.64C1054.171,560.823,1127.657,487.252,1127.895,487.016z" style="fill: inherit;"></path>
        <path d="M487.854,486.516c-1.451,8.879-7.167,6.148,17.664,30.979c62.655,58.73,50.927,53.191,59.15,43.255 C544.115,542.628,487.854,486.516,487.854,486.516z" style="fill: inherit;"></path>
        <path d="M1162.432,543.711c7.199-2.122,9.737-9.883,14.002-15.23c2.58-2.081,6.075-2.413,9.134-3.558 c2.33-4.411,3.703-9.571,7.365-13.108c5.014-2.143,10.444-3.1,15.625-4.868c-11.021-10.128-50.294-18.931-89.693,14.002 c-11.069,9.362-22.512,18.309-33.06,28.275C1111.271,546.457,1137.799,552.824,1162.432,543.711z" style="fill: inherit;"></path>
        <path d="M397.683,519.119c5.16,1.893,10.569,3.121,15.521,5.555c3.807,3.287,4.411,8.926,7.989,12.4 c2.663,1.56,5.659,2.559,8.218,4.307c4.619,5.722,7.989,13.482,15.687,15.708c24.405,8.01,50.329,2.414,75.378,4.869 c-55.882-50.933-55.694-41.142-72.736-49.101C437.764,507.852,408.042,511.024,397.683,519.119z" style="fill: inherit;"></path>
        <path d="M927.184,593.956c0.811,6.075,4.598,11.568,4.099,17.893c1.699,34.537,1.115,3.549,7.095,35.682 c37.275-35.916,13.566-91.898,13.399-95.705c0.042-4.432,0.832-8.78,1.311-13.17c-10.465,5.597-20.66,15.126-21.367,27.671 c-0.416,5.43,5.16,11.256,1.207,16.145C930.7,586.092,927.871,589.629,927.184,593.956z" style="fill: inherit;"></path>
        <path d="M654.091,586.986c-1.852,23.24,2.413,49.933,21.014,65.87c0.395-7.948,3.35-15.167,7.032-22.075 c0.416-5.597-0.915-11.193-0.375-16.79c2.163-14.299,9.739-9.852-3.62-28.961c2.002-5.887,11.794-21.968-17.414-40.654 c0.083,5.534,1.207,11.069,0.458,16.603C659.188,569.739,654.278,577.79,654.091,586.986z" style="fill: inherit;"></path>
        <path d="M828.836,576.23c43.926-4.815,28.464,11.224,37.304,19.64c5.68,5.638,14.356,8.343,22.22,6.845 c12.342-6.365,11.254-31.922,1.873-41.382C878.353,550.343,851.912,544.041,828.836,576.23z" style="fill: inherit;"></path>
        <path d="M713.345,596.786c2.413,10.07,15.188,13.44,23.469,8.343c14.712-6.74,3.225-31.918,48.747-23.011 C740.415,530.581,702.927,570.265,713.345,596.786z" style="fill: inherit;"></path>
        <path d="M942.455,664.466c7.698-1.123,14.418-5.472,19.037-11.651c8.093-10.632,20.14-17.289,28.295-27.879 c17.136-23.485,47.287-46.545,52.347-58.651c-5.181,0.271-10.777,0.832-14.377,5.035 C1013.719,585.168,946.464,658.152,942.455,664.466z" style="fill: inherit;"></path>
        <path d="M1032.044,602.591c-7.386,5.888-16.457,10.59-20.306,19.744c10.819-1.061,22.408-6.699,32.873-0.978 c10.049,4.015,11.297,16.187,18.559,22.99c6.762,3.287,16.332,2.414,20.93-4.078c1.789-3.807,1.768-8.135,2.538-12.192 c2.684,0.375,5.368,0.832,8.031,1.436c3.62,4.432,4.099,10.736,8.093,14.918c15.812,4.482,14.913-7.715,20.493-14.793 c4.889-1.04,11.277,0.291,14.169-4.868c4.931-5.451,0.749-12.65,0.832-18.954c13.996-11.304,20.585,6.565,33.643,3.412 c9.362-1.29,17.123-8.114,20.577-16.769c1.935-5.368,7.386-7.823,11.152-11.693c4.328-3.683,3.974-9.903,5.139-14.98 c-6.595,1.789-12.775,5.264-19.661,5.68c-18.163,0.874-35.806,7.011-54.115,4.64c-24.925,4.015-51.202-3.246-75.254,6.45 C1048.73,586.508,1041.136,595.725,1032.044,602.591z" style="fill: inherit;"></path>
        <path d="M628.084,625.893c-25.196-18.484-44.307-44.685-58.713-51.951c-1.28,11.836,3.308,13.579,75.129,79.103 c7.885,6.491,14.418,14.543,22.803,20.452c-0.52-7.927-4.931-14.793-11.193-19.453 C645.373,646.074,638.674,634.028,628.084,625.893z" style="fill: inherit;"></path>
        <path d="M496.53,596.827c-34.254-5.688-49.843-26.214-90.421-15.438c4.14,2.871,8.489,5.534,12.067,9.134 c6.346,5.576-2.122,15.25,3.766,21.18c3.787,3.932,8.822,6.263,13.107,9.591c3.911,3.1,5.784,7.989,9.487,11.297 c6.366,4.744,15.625,6.304,22.72,2.268c3.974-3.038,5.784-7.989,9.217-11.526c7.74-1.019,15.625-0.957,23.365-2.185 c5.409,5.909,8.863,13.191,13.399,19.703c8.687,13.952,24.776-15.853,37.263-19.203c9.612-2.122,13.898,9.82,22.824,10.403 c7.968,0.999,16.062,0.686,23.989-0.562c-14.565-19.651-49.227-37.203-61.439-37.554 C522.62,592.396,509.638,596.266,496.53,596.827z" style="fill: inherit;"></path>
        <path d="M763.819,652.711c6.512,4.952,13.919-1.332,20.431-3.058c2.081,3.391,4.307,6.741,5.93,10.403 c-0.25,4.432-3.038,8.218-4.057,12.483c0.853,8.551,7.719,14.585,13.107,20.639c5.805-9.071,14.481-15.563,22.158-22.928 c-2.85-5.451-6.179-10.756-7.864-16.707c0.25-5.326,5.056-9.987,9.987-11.547c8.031-1.977,10.902,7.865,14.397,13.024 c6.491-3.204,16.02-7.136,15.251-15.916c-3.015-29.99-22.868-46.736-48.956-27.567c-5.077-4.015-10.299-8.676-16.936-9.55 C760.045,602.237,738.864,637.019,763.819,652.711z" style="fill: inherit;"></path>
        <path d="M1215.403,657.85c0.583-7.968-8.093-12.774-7.615-20.785c-0.146-8.218-6.179-16.208-14.647-17.061 c-6.242-0.978-10.465,4.577-14.439,8.406c-4.619-0.77-11.131-4.369-14.564,0.458c-10.277,21.377,21.094,37.127,41.611,39.302 C1211.367,668.877,1215.174,662.823,1215.403,657.85z" style="fill: inherit;"></path>
        <path d="M378.813,661.533c0.749,3.516-0.624,8.614,3.599,10.257c13.211,9.654,28.046-2.205,41.278-5.68 c6.832-24.36-0.661-47.103-20.785-33.851c-8.614-5.243-24.551-4.952-26.402,7.303c0.832,7.76,7.011,13.752,10.174,20.702 C384.721,660.576,380.789,661.2,378.813,661.533z" style="fill: inherit;"></path>
        <path d="M980.384,677.054c8.156,4.577,17.872-0.624,26.298,2.934c15.618,5.382,11.693,0.909,24.467-4.473 c10.611,2.243,20.947,10.031,41.237-18.766c-7.157,0.728-14.626,3.017-21.617,0.229c-28.732-11.755-65.371-7.906-88.091,14.397 C968.774,672.601,974.87,674.037,980.384,677.054z" style="fill: inherit;"></path>
        <path d="M888.569,652.773c9.364,30.569-3.706,30.803-8.405,48.747c0.229,5.097,4.224,8.614,7.261,12.254 c-3.183,5.805-7.864,12.026-6.928,18.933c7.095,0.499,13.773-1.748,19.453-5.93c18.182,18.282,29.395-2.96,45.314-9.238 c4.973-2.081,10.361-0.749,15.479-0.146c-2.85-11.526-9.716-24.613-23.073-25.445c0.333-6.179,2.039-13.961-3.974-18.101 c-4.328-3.058-8.447,2.309-11.942,4.286C904.829,649.952,905.723,652.894,888.569,652.773z" style="fill: inherit;"></path>
        <path d="M1130.412,785.388c41.71,4.938,119.787-60.452,54.365-106.587c-7.323-5.326-16.852-6.096-24.28-11.152 c-3.225-3.849-3.911-9.05-5.493-13.669c-21.692-1.098-23.81-3.773-33.975,15.979c-35.462-8.98-33.012,26.27-54.115,37.637 c5.43,2.725,9.425,7.303,11.797,12.879c3.35,8.239,12.795,11.214,17.144,18.663c1.498,15.729-11.485,26.735-18.267,39.489 c54.937-16.099,29.902-31.114,42.547-52.576c12.164-23.326,51.996,3.101,39.115,30.813 C1154.214,770.45,1138.173,773.924,1130.412,785.388z" style="fill: inherit;"></path>
        <path d="M534.022,692.346c-31.489,10.873-20.116-17.53-43.068-29.377c-8.073-3.641-16.873-5.16-25.299-7.656 c-16.814,27.023-30.446,16.87-44.836,31.021c-29.524,27.34-21.116,95.777,55.218,92.564 c-10.694-12.983-22.865-26.631-24.613-44.108c-1.519-11.297,6.034-24.072,17.976-25.383c28.252-3.444,22.635,42.876,42.402,57.694 c5.909,5.576,14.418,4.057,21.783,4.14c-22.717-30.619,2.329-32.282-19.62-62.25C523.369,707.991,533.065,702.728,534.022,692.346z" style="fill: inherit;"></path>
        <path d="M564.773,661.761c-7.386,3.391-15.583,1.81-23.323,0.915c18.719,29.087,31.922,20.236,40.28,18.559 c5.555,2.122,10.195,6.907,16.395,7.157c5.597-1.061,10.611-4.91,16.54-4.223c5.701-0.167,12.005,2.081,17.185-1.269 c5.659-3.662,12.359-4.432,18.891-5.243C628.806,654.528,589.984,651.326,564.773,661.761z" style="fill: inherit;"></path>
        <path d="M695.057,678.51c-6.907-1.914-13.877-0.936-19.578,3.558c1.248,4.161,3.058,8.114,5.16,11.922 c-7.386,5.222-16.436,8.51-22.137,15.791c-3.828,4.681-2.476,11.193-2.913,16.769c35.5-7.011,30.609,4.036,48.851,8.801 c5.368,1.124,8.926-4.016,12.691-6.866c5.139,3.038,10.34,6.346,16.416,7.095c6.803-5.659-0.333-13.981-3.662-19.536 c18.975-14.457-2.116-30.737-8.406-43.796c-2.83-5.43-1.436-11.63-1.248-17.435C708.913,658.204,695.369,664.924,695.057,678.51z" style="fill: inherit;"></path>
        <path d="M746.55,709.198c3.121,12.775,2.892,26.257,6.991,38.802c4.681,6.054,10.819,10.756,16.54,15.771 c5.43-7.865,12.525-14.273,19.828-20.369c6.283-4.307,3.266-12.754,4.182-19.12c-0.395-4.827,2.164-10.923-2.226-14.564 c-13.357-14.585-28.212-27.755-43.983-39.676C742.202,682.317,743.95,696.361,746.55,709.198z" style="fill: inherit;"></path>
        <path d="M846.188,670.354c-16.747,13.757-38.379,36.199-37.491,41.403c0.895,9.092,0.853,18.205,1.311,27.338 c13.586,4.452,24.238,14.252,33.351,24.904c20.048-19.659,13.322-17.72,14.002-29.149 C856.653,713.068,858.817,689.495,846.188,670.354z" style="fill: inherit;"></path>
        <path d="M1328.128,741.093c4.348,7.719,7.115,16.166,10.902,24.155c58.676-103.991-38.475-93.22-24.176-49.996 C1318.078,724.428,1323.446,732.625,1328.128,741.093z" style="fill: inherit;"></path>
        <path d="M264.715,750.622c23.803-24.144,25.286-65.158-0.603-60.815c-10.548,0.458-21.284,8.801-21.076,19.994 c-1.103,13.378,9.009,23.51,14.834,34.516C259.888,746.586,260.762,751.641,264.715,750.622z" style="fill: inherit;"></path>
        <path d="M1371.819,789.029c2.975,3.87,3.62,10.361,8.759,11.984c6.991-2.746,12.858-7.615,19.516-11.048 c111.829-63.504,17.654-124.254-24.322-64.164c-10.694,15.438-18.371,32.706-25.57,49.975 C1358.088,778.668,1367.616,780.894,1371.819,789.029z" style="fill: inherit;"></path>
        <path d="M1233.525,730.399c1.494,20.727,36.297,53.209,76.148,66.515c3.474-9.279,9.779-16.998,17.622-22.969 c-3.454-13.919-13.69-24.426-19.495-37.242c-4.307-9.571-14.689-13.378-22.948-18.704 C1253.773,698.262,1233.015,711.729,1233.525,730.399z" style="fill: inherit;"></path>
        <path d="M302.956,804.737c28.324-9.159,63.315-31.148,68.221-60.003c3.668-19.732-35.28-71.355-87.113,4.598 c-6.616,9.238-9.321,20.473-14.751,30.376C283.648,782.871,295.216,792.566,302.956,804.737z" style="fill: inherit;"></path>
        <path d="M234.214,803.822c5.812,1.672,21.248-15.768,23.843-20.389c4.62-9.887-31.717-49.162-42.88-58.817 c-36.977-30.842-54.857,2.37-50.89,23.906C176.295,783.856,220.859,801.525,234.214,803.822z" style="fill: inherit;"></path>
        <path d="M603.575,730.815c0.239-12.006-25.661-14.969-39.447-7.136c-20.323,17.012-11.785,51.615,12.608,63.935 c-0.728-9.737-3.703-21.014,2.809-29.461C583.426,751.609,605.433,755.702,603.575,730.815z" style="fill: inherit;"></path>
        <path d="M1014.609,724.615c-7.948,5.243-7.407,17.373-1.373,23.864c11.443,12.729,27.424,4.495,20.91,45.647 C1086.163,753.616,1046.928,704.639,1014.609,724.615z" style="fill: inherit;"></path>
        <path d="M870.489,804.321c13.17-1.456,26.402-0.291,39.572-0.458c7.115-8.489,11.297-19.266,19.953-26.527 c7.532-8.093,18.808-15.001,19.474-27.193c-15.521-7.948-33.164-1.789-49.496-0.499c-28.815,5.089-18.384-4.915-46.625,22.012 C861.626,780.998,866.765,792.503,870.489,804.321z" style="fill: inherit;"></path>
        <path d="M670.61,765.269c7.324,12.484,40.129,39.067,44.545,41.528c9.113-1.436,18.288-2.642,27.567-2.247 c3.953-11.901,11.11-22.408,18.205-32.644c-6.013-6.637-11.651-13.981-19.391-18.683 C717.568,753.639,692.976,755.969,670.61,765.269z" style="fill: inherit;"></path>
        <path d="M923.252,807.837c9.03,5.326,14.106,14.585,21.305,21.804c7.698,0.458,13.315-8.697,21.18-6.845 c4.889,2.476,9.05,7.76,8.926,13.42c-2.393,5.305-9.217,6.637-12.275,11.36c5.046,31.399,73.764,5.206,42.63-34.35 c4.286-5.347,9.383-11.089,9.175-18.392c-0.104-20.057-20.93-37.804-40.862-32.477c-5.181,3.287-9.071,8.634-11.173,14.356 c-0.437,6.2,3.079,11.901,4.619,17.81C937.169,806.961,955.137,780.974,923.252,807.837z" style="fill: inherit;"></path>
        <path d="M665.575,827.769c3.953,1.186,8.301,3.807,12.359,1.352c6.97-2.559,11.672-10.153,19.599-9.987 c-22.28-13.025-17.236-17.568-26.777-23.594c-5.888,1.914-10.777,6.263-16.894,7.573c-5.534-0.562-10.174-5.264-11.568-10.507 c-1.81-8.073,8.156-10.299,13.461-13.524c-2.351-4.973-4.744-10.236-9.446-13.399c-7.059-6.486-38.138,3.25-41.84,19.391 c-3.474,9.612,2.372,18.933,6.762,27.13c-3.911,5.513-8.967,11.089-9.05,18.246c0.666,19.328,19.64,37.2,39.364,33.122 c5.638-2.247,9.487-7.74,12.171-12.962c0.895-6.762-2.039-13.149-3.454-19.62C655.11,829.204,660.27,825.064,665.575,827.769z" style="fill: inherit;"></path>
        <path d="M781.483,776.379c28.751,17.073,39.016,9.603,52.201-3.495C810.165,757.736,788.329,764.94,781.483,776.379z" style="fill: inherit;"></path>
        <path d="M172.817,825.251c16.103-11.859,37.159-1.04,54.781-7.365c-0.146-0.811-0.478-2.414-0.645-3.204 c-16.707-5.264-35.702,0.25-51.535-8.614c-10.361-6.387-11.027-20.41-19.578-28.358c-12.088-8.863-27.38-12.775-42.256-12.504 c0.77,5.867-1.415,13.419,3.828,17.726c5.513,5.68,13.44,9.342,16.228,17.248c2.351,5.992,8.593,8.551,13.732,11.651 c-17.289,9.758-31.936,28.275-29.357,49.122c10.798-3.204,22.512-3.017,32.852-7.636 C162.04,847.264,162.165,831.93,172.817,825.251z" style="fill: inherit;"></path>
        <path d="M368.514,802.261c-50.141,7.051-46.148,9.616-49.392,17.019c10.798,3.745,22.158,5.763,33.622,5.201 c6.637,0.354,14.273-1.394,20.057,2.705c2.913,6.387,2.393,14.273,7.095,19.807c5.534,5.93,13.981,0.374,17.393-5.118 c4.661-5.68,7.032-15.438,15.687-15.937c26.777-3.599,53.949-1.165,80.767-4.452c86.176-9.798,85.969,0.948,96.309-10.174 c-33.263-20.477-42.304-5.901-72.903-9.466c-37.637-4.889-75.462,2.622-113.182,0.104c-3.703-6.075-4.078-14.231-10.215-18.704 c-4.182-3.433-11.256-7.573-15.667-2.205C374.797,787.905,376.441,798.558,368.514,802.261z" style="fill: inherit;"></path>
        <path d="M20.937,810.105c-36.174,47.535,61.681,27.477,51.348-4.452C67.403,789.93-2.222,772.311,20.937,810.105z" style="fill: inherit;"></path>
        <path d="M768.521,785.076c-15.948,26.155-2.577,38.869,4.785,49.455C777.383,827.588,791.255,811.784,768.521,785.076z" style="fill: inherit;"></path>
        <path d="M839.239,786.012c-13.191,12.4-17.456,35.349-3.683,48.935C851.092,821.195,855.669,806.969,839.239,786.012z" style="fill: inherit;"></path>
        <path d="M1522.951,786.532c-14.362,21.3-11.873,13.417-27.588,25.424c4.223,2.372,9.092,3.974,12.525,7.594 c3.516,4.244,5.638,9.529,9.571,13.482c3.287,3.995,9.03,2.122,13.524,2.726c1.082-7.698,0.583-15.583-4.515-21.804 C1531.523,802.175,1533.29,802.147,1522.951,786.532z" style="fill: inherit;"></path>
        <path d="M1603.364,801.429c-5.766-37.291-78.805,4.181-55.53,23.968c6.916,5.638,42.594,22.196,52.014,5.888 c3.079-5.305-0.811-10.694-2.767-15.604C1599.619,811.187,1603.135,806.797,1603.364,801.429z" style="fill: inherit;"></path>
        <path d="M98.063,790.132c-3.682-0.104-7.365-0.229-11.048-0.312c-2.871,7.469-1.352,15.167,3.1,21.638 c-6.489,16.016-3.076,16.44,3.578,27.235c5.597-11.485,16.291-18.559,26.922-24.863 C105.493,805.435,111.759,810.895,98.063,790.132z" style="fill: inherit;"></path>
        <path d="M1297.793,806.235c-17.622-7.698-37.096-3.225-55.447-6.845c-1.847-31.013-17-22.813-20.057-18.975 c-4.765,5.805-7.844,12.899-13.087,18.33c-13.968,4.316-46.043,1.937-80.476,4.744c-105.575,11.309-82.466-1.573-102.051,10.611 c28.161,20.309,43.124,6.065,72.903,9.903c33.574,4.283,69.36-2.186,114.514-0.458c2.236,27.459,30.867,27.968,26.049,14.169 c1.269-4.806,3.204-9.425,4.244-14.273C1293.078,819.174,1294.751,813.375,1297.793,806.235z" style="fill: inherit;"></path>
        <path d="M905.338,869.193c16.873-5.087,40.872,0.644,43.879-7.698c-50.406-53.57-43.658-44.046-66.078-45.19 c-5.083,0.431-13.331-4.957-34.35,26.777C877.522,868.563,870.709,877.417,905.338,869.193z" style="fill: inherit;"></path>
        <path d="M733.505,870.649c5.285-0.021,11.401,2.684,15.875-1.332c7.386-5.826,14.044-14.085,15.022-23.739 c-1.387-2.084-18.301-26.347-20.722-27.859c-8.593-0.146-17.456-0.478-25.861,1.394c-16.124,14.585-30.147,32.082-39.801,51.619 C696.451,868.714,715.03,869.63,733.505,870.649z" style="fill: inherit;"></path>
        <path d="M1484.003,826.791c-1.768-3.766-4.806-6.637-7.781-9.425c-2.101-1.04-4.161-2.081-6.221-3.1 c0.104-0.582,0.333-1.748,0.437-2.351c17.616-6.873,31.246-28.998,28.025-47.208c-12.858,3.911-28.691,1.727-38.428,12.566 l-0.895-0.978c-3.974,9.071-7.074,19.703-16.353,24.8c-18.315,11.633-40.141-2.261-55.052,8.697 c16.499,7.386,35.806,0.978,52.056,9.154c15.304,8.81,10.416,30.403,37.658,36.847c8.281,2.746,16.852,4.827,25.653,4.64 c-0.166-4.723,0.25-9.591-1.186-14.148C1497.651,838.234,1487.54,835.342,1484.003,826.791z" style="fill: inherit;"></path>
        <path d="M1314.001,820.757c-26.51,8.636-60.429,28.982-67.66,56.341c-6.144,24.53,34.516,74.84,85.365,0.312 c6.907-9.591,10.403-20.993,15.708-31.458C1333.142,842.853,1321.137,833.366,1314.001,820.757z" style="fill: inherit;"></path>
        <path d="M1378.581,821.028c-6.221,6.658-13.815,12.109-18.975,19.703c-7.591,10.731,32.325,52.479,44.212,62.104 c39.271,31.107,58.899-13.859,44.295-36.077C1429.436,836.293,1392.336,823.347,1378.581,821.028z" style="fill: inherit;"></path>
        <path d="M265.027,849.885c-17.843-10.439-12.768-0.497-26.714-25.549c-49.486,18.145-77.883,61.775-75.566,73.444 c9.624,30.3,56.912,52.4,96.642-31.541C261.615,860.933,264.715,855.732,265.027,849.885z" style="fill: inherit;"></path>
        <path d="M378.542,881.655c-20.929-32.507-60.708-52.193-71.592-50.87c-4.868,7.448-10.528,14.273-16.436,20.93 c0.083,10.236,7.49,18.059,12.462,26.361c4.702,7.011,6.803,16.228,14.501,20.806c10.923,6.699,21.721,14.46,34.371,17.456 C381.008,922.413,389.111,897.628,378.542,881.655z" style="fill: inherit;"></path>
        <path d="M585.786,904.666c10.444,1.519,24.239-5.846,21.929-17.997c-2.68-24.968-32.277-2.935-25.82-53.928 C542.703,862.15,555.794,904.304,585.786,904.666z" style="fill: inherit;"></path>
        <path d="M825.507,843.04c-17.946-15.608-29.649-9.878-45.689,4.931C792.947,859.289,814.834,856.501,825.507,843.04z" style="fill: inherit;"></path>
        <path d="M488,840.564c-43.111-6.475-118.437,58.943-58.63,104.714c7.552,5.888,17.539,6.928,25.632,11.859 c4.556,3.266,4.931,9.487,6.658,14.397c25.203,1.167,25.263,2.001,33.31-15.729c38.779,6.294,32.146-24.926,54.511-37.866 c-5.472-2.518-9.3-7.136-11.526-12.608c-3.391-8.946-14.481-11.901-17.581-20.805c0.291-14.814,11.818-25.653,19.203-37.492 c-11.714,3.974-24.717,6.907-33.892,15.687c-7.656,10.715-1.852,25.632-8.905,36.659c-14.558,24.234-52.994-4.796-38.761-31.791 C463.554,854.441,478.7,850.385,488,840.564z" style="fill: inherit;"></path>
        <path d="M1012.861,894.18c3.282,15.555,29.512,14.479,40.654,6.637c14.714-13.565,16.4-44.446-12.796-62.812 c-0.125,10.611,3.266,23.427-5.43,31.708C1031.243,871.396,1012.562,872.14,1012.861,894.18z" style="fill: inherit;"></path>
        <path d="M1081.603,930.403c0.333,0.52,0.978,1.581,1.29,2.101c21.849-4.474,22.466,2.967,25.612,9.258 c9.58,23.522,22.905,23.328,42.776,28.295c17.24-27.754,31.322-16.295,45.918-31.583c20.348-20.847,19.203-58.651-3.412-77.459 c-6.517-4.543-32.443-15.41-52.118-14.46c9.633,13.836,21.846,27.318,23.656,44.836c2.661,18.509-19.833,34.277-34.204,17.789 c-17.43-19.439-7.012-57.877-48.123-55.093c22.65,35.178-1.49,35.481,20.369,63.29 C1087.944,918.836,1090.947,918.407,1081.603,930.403z" style="fill: inherit;"></path>
        <path d="M862.708,875.934c-8.78-8.988-15.833-19.994-27.234-26.028c-6.096,6.055-12.795,11.672-17.747,18.746 c0.541,7.532,3.911,14.605,4.14,22.199c0.479,5.097-1.227,10.965,2.455,15.23c10.299,13.336,22.595,25.362,36.743,34.6 C865.662,928.618,872.797,885.527,862.708,875.934z" style="fill: inherit;"></path>
        <path d="M761.406,947.879c7.615-3.828,12.504-11.069,19.037-16.312c32.118-26.777,25.981-21.302,27.11-57.153 c-11.068-4.39-20.743-11.297-30.647-17.726c-4.468,1.321-23.299,23.031-20.577,35.931 C759.533,910.929,756.038,929.862,761.406,947.879z" style="fill: inherit;"></path>
        <path d="M287.747,883.028c-3.828-6.491-5.534-13.898-8.676-20.681c-0.687-0.063-2.081-0.167-2.788-0.229 c-6.158,12.463-11.173,25.528-15.354,38.782c-16.629,56.224,54.07,49.081,41.008,9.425 C298.295,900.692,292.886,891.891,287.747,883.028z" style="fill: inherit;"></path>
        <path d="M1353.198,873.811c-29.094,29.336-23.935,72.636,6.533,60.565c11.714-3.516,17.497-18.247,12.567-29.107 C1367.762,893.785,1360.334,883.777,1353.198,873.811z" style="fill: inherit;"></path>
        <path d="M729.344,968.893c-1.352-8.343-4.411-17.019-1.498-25.362c2.663-8.884,9.654-16.187,10.694-25.549 c-1.602-3.995-4.452-7.282-7.011-10.652c3.828-5.721,7.136-12.026,6.991-19.099c-7.303-1.144-13.711,2.393-19.411,6.45 c-16.882-19.57-30.596,3.954-46.084,9.487c-4.952,1.186-10.049,0.146-15.042,0.021c3.287,11.173,9.758,25.112,23.365,25.071 c-0.395,5.763-2.497,13.066,2.85,17.269c3.911,4.598,9.071-0.832,12.816-2.767C713.913,969.948,711.141,968.33,729.344,968.893z" style="fill: inherit;"></path>
        <path d="M923.938,943.219c5.721,0.853,11.485,0.582,17.019-1.165c2.83-4.973-0.167-10.007-2.205-14.543 c22.847-16.961,24.223-10.566,24.072-33.039c-31.75,7.605-26.794-0.993-46.667-7.823c-5.888-2.247-10.361,3.017-14.397,6.366 c-5.16-2.975-10.403-6.2-16.395-7.095c-7.074,5.368,0.062,14.002,3.558,19.432c-19.117,17.281,2.83,29.903,9.238,45.523 c2.081,4.973,0.437,10.424,0.27,15.583C910.165,963.754,922.648,956.409,923.938,943.219z" style="fill: inherit;"></path>
        <path d="M812.338,1013.895c4.66,3.662,9.217,8.156,15.23,9.321c19.495,1.789,39.489-16.332,36.139-36.493 c-0.146-8.738-9.258-12.275-15.521-16.187c-5.617,1.997-11.235,3.953-16.998,5.368c-1.54-3.454-3.267-6.824-4.452-10.403 c-0.313-12.373,13.229-8.515-9.258-32.998c-5.264,8.926-14.148,14.356-21.471,21.284c0.354,6.741,5.826,11.943,7.636,18.351 c-0.811,4.889-5.243,8.343-9.113,11.006c-8.634,4.036-11.943-7.324-15.542-12.775c-7.324,3.162-17.269,8.551-15.146,18.163 C769.036,1019.217,786.951,1031.979,812.338,1013.895z" style="fill: inherit;"></path>
        <path d="M1036.954,940.722c-5.077-3.162-10.028-7.532-16.291-7.74c-5.618,1.04-10.611,4.889-16.52,4.265 c-5.742,0.229-12.047-2.06-17.248,1.269c-5.68,3.516-12.317,4.39-18.787,5.451c16.873,17.851,42.922,23.094,66.557,20.826 c20.852-1.787,8.915-8.026,42.734-6.179C1061.005,932.087,1047.004,937.164,1036.954,940.722z" style="fill: inherit;"></path>
        <path d="M638.32,944.55c-6.491-4.078-14.293-1.123-21.43-1.914c-12.066-0.299-8.181-10.767-28.899,3.745 c-19.159-7.21-28.117-0.872-40.82,17.789c8.676-1.02,17.789-2.268,25.861,2.018c6.803,4.099,17.061,1.269,21.451,8.926 c-0.624-1.082-1.852-3.246-2.455-4.327c22.99,1.415,47.77-3.87,64.372-20.868C650.221,948.711,643.896,947.63,638.32,944.55z" style="fill: inherit;"></path>
        <path d="M1195.846,955.91c-5.576,11.401-5.389,27.047,4.452,36.118c5.389,2.622,10.632-0.728,15.729-2.289 c5.638,1.269,11.485,4.12,17.31,1.977c5.16-1.165,9.404-6.075,9.071-11.443c-2.455-6.637-6.783-12.338-10.174-18.496 c2.809-0.936,5.638-1.872,8.468-2.809C1239.893,938.9,1213.208,945.975,1195.846,955.91z" style="fill: inherit;"></path>
        <path d="M991.91,996.439c23.09,16.56,46.579,47.367,57.423,51.203c1.379-9.593,2.254-10.745-79.539-83.201 c-6.138-5.451-11.381-11.963-18.579-16.083c1.082,7.074,4.723,13.628,10.528,17.914 C973.227,974.864,980.405,987.826,991.91,996.439z" style="fill: inherit;"></path>
        <path d="M411.623,978.713c-2.434,9.217,2.101,20.161,12.026,22.241c6.845,2.517,11.942-3.766,16.291-7.969 c4.993,1.394,10.174,1.914,15.313,1.228c0.686-5.951,1.997-12.317-0.666-17.997c-5.755-14.648-39.527-26.612-47.811-20.826 C399.556,962.526,404.799,973.408,411.623,978.713z" style="fill: inherit;"></path>
        <path d="M658.127,977.714c6.2-6.741,13.357-12.775,17.976-20.806c-7.032,1.248-13.607,4.702-17.851,10.548 c-8.177,11.214-20.639,18.205-29.128,29.149c-17.304,23.587-47.431,46.463-52.555,58.214 C590.092,1057.873,594.899,1045.503,658.127,977.714z" style="fill: inherit;"></path>
        <path d="M946.887,970.536c-0.895-0.146-2.705-0.437-3.599-0.583c-0.333,5.68-1.477,11.318-4.536,16.207 c-4.057,5.68-1.165,12.712-1.581,19.079c0.875,12.355-12.073,10.539,3.87,31.292c-4.782,11.741-9.478,21.646,16.79,40.675 c0-7.095-1.352-14.398,1.082-21.243C970.189,1028.209,966.444,993.735,946.887,970.536z" style="fill: inherit;"></path>
        <path d="M582.27,1022.55c8.634-7.448,19.62-12.795,24.946-23.385c-7.948,0.52-15.542,3.537-23.531,3.433 c-23.685-0.295-19.263-28.902-35.411-27.234c-9.82-1.165-17.414,7.448-15.75,17.04c-2.996-0.083-5.992-0.166-8.967-0.208 c-3.287-6.096-3.828-16.249-12.733-16.207c-9.258-0.915-11.547,9.57-14.834,15.999c-25.142,1.313-14.747,14.805-15.854,23.261 c-8.482,12.615-20.187-5.71-33.226-2.934c-9.903,1.436-17.83,8.926-21.346,18.08c-2.226,6.387-10.174,7.74-13.003,13.69 c-1.685,3.579-1.873,7.615-2.559,11.464c5.971-1.54,11.547-4.619,17.705-5.409c18.808-0.853,37.117-7.323,56.071-4.827 c24.467-3.662,50.017,2.83,73.756-5.784C567.373,1036.532,574.572,1028.896,582.27,1022.55z" style="fill: inherit;"></path>
        <path d="M689.418,1020.178c-5.097-9.154,1.81-20.244-3.974-29.107c-2.975-5.201-3.974-11.173-5.347-16.915 c-23.762,24.326-24.963,63.857-15.25,85.011c3.578,7.469,1.873,15.812,1.123,23.677c17.01-10.438,25.523-22.267,17.789-40.363 C688.253,1036.074,694.349,1028.126,689.418,1020.178z" style="fill: inherit;"></path>
        <path d="M1120.447,1024.527c37.215,4.423,43.555,25.205,92.397,15.812c-21.652-14.513-13.348-12.045-13.503-28.545 c-4.556-3.932-9.446-7.407-14.377-10.819c-8.189-5.314-7.158-18.104-28.233-16.665c-7.22,1.436-10.611,8.676-14.377,14.189 c-7.386-0.187-14.709,0.915-22.033,1.415c-8.697-4.369-10.111-15.563-17.04-21.804c-14.03-6.299-21.595,20.99-36.971,21.867 c-7.532,0.458-11.089-7.636-17.393-9.966c-8.842-1.706-17.934-0.936-26.86-0.333c7.969,12.13,20.389,20.265,32.935,27.026 C1084.782,1032.461,1083.822,1028.312,1120.447,1024.527z" style="fill: inherit;"></path>
        <path d="M901.302,1024.61c-5.763-9.779-21.305-8.01-27.026,0.915c-8.637,10.734-3.645,23.439-43.13,17.706 C874.48,1097.048,919.259,1053.131,901.302,1024.61z" style="fill: inherit;"></path>
        <path d="M1039.43,1146.718c0.812-9.05-1.373-18.018-1.082-27.047c0.459-66.951-8.423-58.829-25.216-82.057 c-5.742-7.407-10.59-16.499-19.89-19.953c1.456,10.985,6.97,23.115,0.624,33.58c-4.432,9.113-15.771,10.548-22.22,17.56 c-3.787,6.366-2.33,15.001,2.538,20.41c3.849,2.351,8.53,2.122,12.858,2.726c-0.104,2.705-0.125,5.43-0.458,8.135 c-4.036,3.391-9.529,4.224-13.94,6.97c-2.351,2.767-3.017,6.699-1.831,10.132c1.311,7.428,10.174,8.093,15.708,11.11 c-0.624,5.742-0.333,12.858,5.805,15.604c6.325,5.014,17.165-4.785,20.785,4.244c3.162,5.701-1.685,11.276-3.849,16.395 c-6.533,10.278-1.186,24.53,8.78,30.501c3.599,2.143,7.178,4.806,7.823,9.258c0.021-1.436,0.021-4.307,0.021-5.742 c12,13.382,8.142,13.189,24.114,15.979c-1.852-7.428-5.825-14.356-5.909-22.116 C1043.383,1177.073,1037.849,1162.155,1039.43,1146.718z" style="fill: inherit;"></path>
        <path d="M787.891,1049.473c-10.902,1.602-22.366,2.039-32.165-3.87c-1.311-5.389-1.082-11.672-5.139-15.916 c-6.138-6.075-15.75-9.092-24.093-6.429c-10.028,9.487-8.385,26.069-3.038,37.617 C735.955,1077.773,769.977,1079.596,787.891,1049.473z" style="fill: inherit;"></path>
        <path d="M637.966,1156.912c-3.246-3.807-8.031-5.784-11.526-9.279c-1.227-5.097-0.146-10.444-1.165-15.583 c-0.104-3.038-1.748-6.824,1.04-9.196c8.776-8.878,25.124-10.109,20.14-21.513c-4.764-11.089-18.704-15.604-21.825-27.588 c-2.143-9.903,10.049-13.961,10.632-22.948c0.957-7.802,0.541-15.688-0.187-23.469c-17.123,11.381-26.111,30.584-35.099,48.311 c-7.074,16.27-1.456,33.934-0.083,50.703c-3.179,28.572-28.827,59.24-14.938,92.148c3.287-5.097,5.659-11.38,11.235-14.46 c5.784-1.207,11.901,2.018,17.477-0.333c6.991-5.659,8.967-15.833,17.435-19.994 C640.317,1178.675,642.086,1165.817,637.966,1156.912z" style="fill: inherit;"></path>
        <path d="M827.214,1217.436c-4.602-8.687-1.628-62.648-7.24-98.681c-6.139-86.113,1.491-62.019-7.448-82.931 c-20.988,23.045-7.414,46.33-10.881,73.048c-3.932,38.116,2.975,76.356,0.104,114.493c-24.494,6.178-21.789,15.34-22.137,24.551 c7.656,3.017,19.266,1.581,23.177,10.278c6.517,50.367,8.325,42.944,16.478,49.059c7.136-15.146,4.328-32.04,5.514-48.102 c0.853-8.946,10.944-7.636,17.185-10.174c5.534-1.415,9.196-7.844,6.367-13.128 C843.837,1227.173,832.997,1224.967,827.214,1217.436z" style="fill: inherit;"></path>
        <path d="M1131.37,1134.817c3.807-9.695-4.536-17.414-10.632-23.76c-20.41-19.079-38.948-40.071-60.773-57.59 c-1.997,1.935-3.974,3.911-5.888,5.909C1056.13,1061.459,1126.371,1131.137,1131.37,1134.817z" style="fill: inherit;"></path>
        <path d="M1172.398,1109.226c8.849,4.025,36.812,1.475,49.163-6.741c-5.181-2.205-10.694-3.516-15.895-5.617 c-4.952-3.682-4.348-12.046-10.881-14.044c-9.321-2.829-10.403-15.334-19.807-17.872c-24.613-9.175-51.14-2.85-76.585-5.451 C1173.93,1121.212,1134.939,1091.482,1172.398,1109.226z" style="fill: inherit;"></path>
        <path d="M560.653,1063.392c-22.449,25.591-48.061,48.206-71.092,73.235c2.767,0.583,5.513,1.477,8.385,1.56 c13.776-6.749,64.257-61.661,72.632-72.632C569.724,1061.103,563.15,1059.501,560.653,1063.392z" style="fill: inherit;"></path>
        <path d="M456.396,1077.685c-7.199,1.997-9.529,9.945-14.044,15.042c-3.059,1.831-6.554,2.892-9.487,4.973 c-2.434,3.932-3.703,8.572-6.803,12.109c-5.097,2.081-10.569,2.954-15.791,4.577c10.138,9.949,49.189,20.199,92.085-15.75 c10.008-8.905,20.556-17.227,30.418-26.298C507.37,1074.585,480.989,1068.905,456.396,1077.685z" style="fill: inherit;"></path>
        <path d="M971.666,1164.174c1.149-25.078,1.068-26.001-16.873-33.31c10.808-32.862-18.283-30.239-36.951-53.969 c-3.204,5.534-8.426,9.196-14.044,11.984c-6.762,3.37-9.737,10.819-15.375,15.458c-15.958,4.036-27.588-10.091-40.092-17.248 c-0.312,0.458-0.957,1.352-1.269,1.81c3.995,9.675,7.178,19.973,13.17,28.649c11.048,12.109,30.563,3.1,42.339,13.919 c18.21,17.953-10.165,47.545-33.268,37.367c-14.023-4.869-18.101-20.722-28.379-29.981c-3.142,12.629,3.932,24.384,8.322,35.744 c15.901,38.426,65.964,65.443,97.079,20.618c5.451-7.823,6.595-17.726,11.797-25.674 C962.179,1166.795,967.089,1165.776,971.666,1164.174z" style="fill: inherit;"></path>
        <path d="M779.215,1150.504c-11.297,8.593-22.324,18.184-36.202,22.366c-23.857,9.766-44.232-17.103-27.588-31.666 c20.11-18.303,60.06-8.235,56.008-48.851c-32.962,22.553-37.047-2.22-63.561,20.93c-0.483-16-0.122-14.522-13.274-22.158 c-0.499,7.615,1.997,17.144-4.14,23.136c-10.783,7.691-30.919,6.67-33.601,46.126c4.099,3.703,8.988,6.595,12.546,10.902 c7.386,8.468,7.324,20.743,13.898,29.71C707.178,1235.379,782.066,1229.774,779.215,1150.504z" style="fill: inherit;"></path>
        <path d="M1066.623,1091.396c2.393,25.466-3.579,51.931,5.409,76.606c1.977,7.282,9.924,9.695,15.25,14.002 c2.06,2.642,2.434,6.137,3.599,9.217c4.536,2.081,9.696,3.454,13.232,7.199c2.33,4.91,2.954,10.444,4.66,15.604 c8.343-9.134,7.74-22.366,9.425-33.871c1.997-10.236-4.182-19.058-6.762-28.504 C1108.276,1140.83,1102.079,1131.096,1066.623,1091.396z" style="fill: inherit;"></path>
        <path d="M519.833,1165.651c-2.122,8.322-7.677,15.916-6.471,24.883c1.186,12.421,0.603,26.506,9.508,36.41 c1.644-5.264,2.351-10.819,4.556-15.875c3.183-3.35,7.968-4.328,11.797-6.741c3.058-3.454,3.058-9.196,7.49-11.401 c4.91-3.204,11.027-6.034,12.691-12.192c9.217-24.613,3.183-51.265,5.326-76.793 C530.522,1144.18,523.534,1151.614,519.833,1165.651z" style="fill: inherit;"></path>
        <path d="M1224.578,1117.777c-6.678,5.659,0.104,14.584,0.167,21.7c-12.712-3.974-27.068-7.698-39.364-0.312 c-12.623-9.927-21.653-13.826-35.494-3.703c6.887,8.114,14.98,18.08,26.756,17.581c31.954,1.021,25.668,31.318,30.376,42.235 c4.224,5.493,11.172,7.968,16.395,12.442c0.312-4.744-1.061-10.132,2.101-14.189c2.746-4.806,7.219-8.634,8.884-14.002 c0.104-6.491-2.705-12.567-4.473-18.683C1268.354,1139.495,1237.1,1106.082,1224.578,1117.777z" style="fill: inherit;"></path>
        <path d="M427.747,1175.929c7.448-10.465,21.138-14.169,33.372-11.672c5.076-5.867,10.34-11.568,15.188-17.643 c-8.614-2.039-17.685-2.726-26.194,0.083c-7.448,2.954-14.501-3.204-22.054-1.748c-9.3,1.415-17.185,6.928-25.362,11.152 c-0.395-3.454-1.81-6.907-1.207-10.382c2.143-2.767,4.827-5.097,6.72-8.031c1.158-17.514-31.512-16.829-38.053,3.225 c4.454,24.973,7.941,30.558,28.566,33.955c-8.27,20.162,0.897,21.744,5.805,43.754c5.701-5.077,11.755-10.236,15.063-17.269 C421.11,1192.573,421.485,1182.961,427.747,1175.929z" style="fill: inherit;"></path>
        <path d="M1189.063,1203.621c-11.734-0.458-22.824-7.698-27.983-18.226c-3.724-6.741-2.684-14.543-2.83-21.908 c-4.785-6.034-11.505-10.195-17.331-15.146c-2.143,8.988-2.476,18.392,0.499,27.255c5.07,13.037-13.241,6.697,9.154,45.939 c-3.058,0.582-6.075,1.352-9.154,1.664c-3.412-1.873-5.93-4.993-9.258-6.928c-16.837-2.583-17.787,31.268,3.266,37.866 c6.054-0.271,11.693-3.558,17.705-4.536c10.611-2.497,15.022-14.273,16.187-23.989c20.104,7.382,12.313,2.669,43.941-5.95 C1206.915,1212.38,1199.57,1203.766,1189.063,1203.621z" style="fill: inherit;"></path>
        <path d="M504.228,1227.464c-6.554-1.228-12.962,2.06-19.432,2.705c5.506-21.742,7.439-19.9,0.915-39.343 c12.744-17.184,9.258-22.383,5.139-34.1c-6.845,1.56-12.026,6.679-15.583,12.525c-10.284,13.251,7.748,36.923-40.155,41.59 c-10.361,0.541-12.983,12.15-19.287,18.434c20.228-0.761,12.468,2.766,27.38,10.195c6.991,1.831,13.69-2.372,20.161-4.452 C486.841,1276.385,521.989,1239.144,504.228,1227.464z" style="fill: inherit;"></path>
        <path d="M996.383,1184.189c0.874-4.036,2.476-8.135,1.769-12.317c-7.429-9.675-34.752-3.664-41.507,37.325 c-0.936,5.805,3.766,12.088,9.924,11.734c7.948,0.645,12.691-7.968,20.597-7.594 C1001.443,1212.607,1013.495,1199.392,996.383,1184.189z" style="fill: inherit;"></path>
        <path d="M669.508,1202.331c-16.041-10.292-49.666-3.26-34.017,18.933c-4.785,8.239-5.285,21.43,4.515,26.215 c8.676,1.664,15.271-5.971,22.47-9.55c0.874,2.601,1.769,5.222,2.684,7.844c9.529,0.853,15.063-9.466,13.419-17.872 C676.873,1218.996,673.086,1210.612,669.508,1202.331z" style="fill: inherit;"></path>
        <path d="M1269.539,1213.982c-26.066,3.287-38.93-1.716-47.894,15.001c-3.079,6.283,0.562,12.879,1.831,19.12 c1.748,6.242,0.25,12.692-0.604,18.954c8.676,0.77,15.916-3.932,20.473-11.068c7.74,5.035,16.956,5.992,25.903,7.074 c1.144-10.091-0.312-20.161-5.264-29.065C1269.643,1228.754,1271.183,1221.368,1269.539,1213.982z" style="fill: inherit;"></path>
        <path d="M376.607,1228.9c-6.346,2.413-12.962,0.312-19.307-0.832c-0.895,8.78,3.745,16.374,11.36,20.473 c-5.306,7.698-6.491,16.998-7.448,26.069c10.049,1.456,20.369,0.146,29.044-5.368c5.264,5.846,12.671,7.407,20.181,5.576 C406.655,1259.173,416.917,1216.667,376.607,1228.9z" style="fill: inherit;"></path>
        <path d="M855.467,1335.486c8.967-2.497,16.208-8.718,24.239-13.149c7.115-4.515,16.353-7.157,20.202-15.396 c3.807-7.423,30.997-42.06,9.529-59.421c-26.173-22.534-74.673,42.786-80.268,72.299 C846.703,1326.713,848.764,1338.033,855.467,1335.486z" style="fill: inherit;"></path>
        <path d="M712.721,1304.798c17.641,33.872,63.53,50.15,67.535,52.347c2.58-14.543,12.296-26.61,24.779-34.059 C760.853,1205.967,692.579,1268.202,712.721,1304.798z" style="fill: inherit;"></path>
        <path d="M910.977,1323.939c-10.84,3.599-19.994,10.632-30.126,15.687c-6.429,3.225-13.399,5.056-19.932,7.969 c1.663,3.651,39.926,21.563,59.878,20.265c11.776-0.499,21.887-11.401,20.722-23.365 C942.102,1329.141,924.5,1319.757,910.977,1323.939z" style="fill: inherit;"></path>
        <path d="M752.293,1362.846c-20.551-20.73-55.389-27.18-60.586-10.153c-6.845,14.397,6.616,33.185,22.553,30.688 C728.699,1380.551,740.288,1370.731,752.293,1362.846z" style="fill: inherit;"></path>
        <path d="M799.521,1406.204c3.308-7.386,7.948-17.789,0.042-23.926c-19.381-16.395-12.392-24.938-54.531,8.967 c-19.389,16.499-45.96,45.262-26.922,62.146c22.142,19.285,41.708,5.117,55.426-6.512 C786.06,1436.206,792.364,1420.581,799.521,1406.204z" style="fill: inherit;"></path>
        <path d="M908.418,1394.574c-14.98-18.08-38.532-24.717-58.755-34.995c-1.602,6.034-3.745,11.922-6.242,17.664 c-5.722,4.203-12.13,7.324-18.621,10.174c2.788,11.464,11.089,20.389,15.458,31.208c5.68,13.544,17.851,22.47,29.045,31.25 c16.354,12.229,29.012,25.371,51.078-3.891C932.919,1425.029,917.247,1396.736,908.418,1394.574z" style="fill: inherit;"></path>
        <path d="M820.93,1443.842c-3.849-14.709,2.33-30.397-2.58-44.94c-0.811,0.042-2.393,0.083-3.183,0.125 c-6.658,15.895,0.083,34.6-8.135,50.162c-10.767,17.885-41.663,9.152-42.006,63.644c5.389-0.333,11.089,0.208,16.166-1.956 c6.991-4.91,9.924-14.189,18.226-17.477c6.408-2.746,9.591-9.196,12.463-15.105c8.759,17.83,27.9,32.79,48.602,29.877 c-1.976-10.798-2.559-22.075-6.782-32.311C847.186,1460.85,828.553,1467.671,820.93,1443.842z" style="fill: inherit;"></path>
        <path d="M815.874,1507.319c-0.978-0.063-2.975-0.208-3.974-0.271c-1.165,9.903-10.84,13.44-17.83,18.642 c-4.993,2.933-3.578,9.383-4.473,14.21c7.802,2.351,15.563,0.291,22.387-3.724c13.519,5.96,13.172,5.568,27.463-3.454 C828.982,1527.064,820.639,1518.284,815.874,1507.319z" style="fill: inherit;"></path>
        <path d="M798.419,1558.688c-3.308,9.071-7.781,17.955-8.822,27.692c-4.64,7.927-2.871,20.681,6.699,23.864 c5.389,2.226,9.945-2.122,14.106-4.889c3.641,3.287,7.344,7.448,12.65,7.594c7.407,0,14.834-5.576,15.937-13.108 C841.968,1583.957,821.629,1538.326,798.419,1558.688z" style="fill: inherit;"></path>
    </g>
</svg>